<?xml version="1.0" encoding="UTF-8" standalone="no"?>
<!-- Created with Inkscape (http://www.inkscape.org/) -->

<svg
   xmlns:dc="http://purl.org/dc/elements/1.1/"
   xmlns:cc="http://creativecommons.org/ns#"
   xmlns:rdf="http://www.w3.org/1999/02/22-rdf-syntax-ns#"
   xmlns:svg="http://www.w3.org/2000/svg"
   xmlns="http://www.w3.org/2000/svg"
   xmlns:sodipodi="http://sodipodi.sourceforge.net/DTD/sodipodi-0.dtd"
   xmlns:inkscape="http://www.inkscape.org/namespaces/inkscape"
   version="1.1"
   id="svg3328"
   width="573.33331"
   height="208"
   viewBox="0 0 573.33331 208"
   sodipodi:docname="logo1.svg"
   inkscape:version="0.92.2 2405546, 2018-03-11">
  <metadata
     id="metadata3334">
    <rdf:RDF>
      <cc:Work
         rdf:about="">
        <dc:format>image/svg+xml</dc:format>
        <dc:type
           rdf:resource="http://purl.org/dc/dcmitype/StillImage" />
        <dc:title />
      </cc:Work>
    </rdf:RDF>
  </metadata>
  <defs
     id="defs3332" />
  <sodipodi:namedview
     pagecolor="#ffffff"
     bordercolor="#666666"
     borderopacity="1"
     objecttolerance="10"
     gridtolerance="10"
     guidetolerance="10"
     inkscape:pageopacity="0"
     inkscape:pageshadow="2"
     inkscape:window-width="1366"
     inkscape:window-height="709"
     id="namedview3330"
     showgrid="false"
     inkscape:zoom="1.0914934"
     inkscape:cx="74.089834"
     inkscape:cy="140.78759"
     inkscape:window-x="0"
     inkscape:window-y="0"
     inkscape:window-maximized="1"
     inkscape:current-layer="svg3328"
     inkscape:measure-start="0,0"
     inkscape:measure-end="0,0" />
  <g
     id="g4021"
     transform="translate(-3.6647039,14.826464)">
    <path
       sodipodi:nodetypes="ccccc"
       inkscape:connector-curvature="0"
       id="path3997"
       d="M 55.932202,138.84371 C 31.054328,89.075186 85.667775,44.797931 109.21657,23.691155 c 3.69769,10.350897 1.39576,22.086323 -0.32392,33.687381 -1.20524,1.628359 -5.73811,5.722186 -8.61833,8.188034 C 90.12709,60.2033 48.814015,96.822652 55.932202,138.84371 Z"
       style="fill:#1aa4ce;fill-opacity:1;stroke:none;stroke-width:1px;stroke-linecap:butt;stroke-linejoin:miter;stroke-opacity:1" />
    <path
       sodipodi:nodetypes="ccccccc"
       inkscape:connector-curvature="0"
       id="path4001"
       d="m 71.480224,152.26176 c 25.058523,-0.49571 53.547006,-4.73387 75.310736,-23.24104 l -4.37289,25.59755 14.90019,16.83559 -44.21469,-0.44943 -8.09792,-1.57708 z"
       style="fill:#bc0c3e;fill-opacity:1;stroke:none;stroke-width:0.98107082px;stroke-linecap:butt;stroke-linejoin:miter;stroke-opacity:1" />
    <path
       inkscape:connector-curvature="0"
       id="path3338"
       d="m 124.19148,175.78324 c -10.99417,-1.69224 -13.90224,-3.30053 -12.51319,-6.92033 0.68747,-1.79151 1.89935,-2.08895 5.84371,-1.43423 9.91293,1.64543 35.14768,3.78836 35.8884,3.04764 0.41745,-0.41745 -1.62923,-3.63301 -4.54819,-7.1457 -8.1806,-9.84462 -8.49372,-10.824 -6.34169,-19.83559 1.03557,-4.33645 1.90424,-8.36477 1.93036,-8.95183 0.0261,-0.58705 -3.88792,1.7409 -8.69786,5.1732 -12.28779,8.76838 -26.788,14.17606 -38.587978,14.39091 -8.5913,0.15643 -9.36576,-0.0575 -9.74112,-2.69051 -0.36836,-2.58398 0.40483,-2.95354 8,-3.8237 17.819658,-2.04156 33.008178,-9.72884 46.746998,-23.65982 9.10362,-9.23093 12.99412,-10.74478 12.99412,-5.05621 0,1.47595 -1.54835,9.28657 -3.44078,17.35695 l -3.44076,14.67342 8.07855,9.76647 c 4.4432,5.37156 8.24155,11.22977 8.44076,13.01824 l 0.36223,3.25176 -15.33334,0.21289 c -8.43333,0.11707 -19.97143,-0.50101 -25.64022,-1.37356 z M 89.831702,167.7365 c -20.61111,-7.30346 -37.41871,-18.5852 -47.46088,-31.85711 -12.37496,-16.35497 -18.9865,-35.1603 -19.3141,-54.935482 l -0.15461,-9.333333 -3.36248,10.000003 c -2.03261,6.04498 -3.694458,14.746022 -4.201868,22.000002 -0.817514,11.68728 -0.926257,12 -4.172722,12 -3.3014936,0 -3.3324346,-0.10827 -3.2392866,-11.33334 0.155611,-18.752202 6.4120576,-37.422668 21.6443866,-64.591092 6.76968,-12.074423 11.34851,-18.360367 18.93901,-26 14.83562,-14.931643 40.75055,-29.416797 46.36141,-25.913714 4.4459,2.7757525 16.159358,21.747588 18.894348,30.602436 4.55518,14.747974 3.08432,36.193615 -2.69448,39.286334 -4.07975,2.183417 -5.38438,-1.366156 -3.18641,-8.669454 1.07123,-3.559413 1.94769,-9.013101 1.94769,-12.119306 0,-11.161006 -7.7074,-29.510616 -16.334988,-38.88998 L 90.772652,-4.9789775 78.635512,1.2711 c -9.48511,4.884402 -14.64305,8.736238 -23.60556,17.628108 -17.39694,17.259833 -24.2914,33.923464 -24.2914,58.71137 0,21.173192 7.51917,42.323732 19.75188,55.559762 5.8526,6.33262 5.92784,6.36718 4.50287,2.06857 -0.79705,-2.40441 -1.22818,-8.74828 -0.95806,-14.09748 0.65032,-12.87816 7.35437,-26.776682 18.83669,-39.051322 9.56558,-10.225643 23.91386,-20.876491 27.256528,-20.232752 5.0156,0.965916 3.14953,4.771869 -5.293688,10.796829 -18.39831,13.128763 -32.09478,32.226535 -33.87162,47.229125 -1.52258,12.85581 6.85204,29.95056 17.27844,35.26971 2.80017,1.42854 10.30347,4.29618 16.674,6.37256 9.068368,2.95568 11.582778,4.31536 11.582778,6.26344 0,3.64342 -6.2923,3.6236 -16.666668,-0.0525 z M 130.09837,92.010578 c -2.41615,-2.41616 -2.16973,-4.52512 5.73333,-49.066673 4.03334,-22.731812 7.33334,-41.958463 7.33334,-42.725889 0,-0.767428 1.47273,-2.868051 3.27273,-4.6680505 3.25487,-3.254865 3.41713,-3.272727 29.73333,-3.272727 18.8027,0 26.92366,0.463054 28.0606,1.6 0.88,0.88 1.6,3.5459775 1.6,5.9243945 0,7.53548 -2.97544,8.475605 -26.82482,8.475605 h -20.89814 l -2.14122,11.666667 c -1.17768,6.416667 -2.14002,12.416667 -2.13852,13.333333 0.003,1.250456 4.474,1.666667 17.90746,1.666667 14.49928,0 18.30328,0.398515 20,2.095239 3.01206,3.012049 2.58482,6.869729 -1.17749,10.632034 -3.15915,3.159147 -3.91252,3.272727 -21.70801,3.272727 h -18.43528 l -3.20679,18.308737 c -2.55555,14.590586 -3.82103,18.922976 -6.23137,21.333336 -3.29455,3.29455 -8.34753,3.95622 -10.87915,1.4246 z m 74.66667,0 c -2.4316,-2.4316 -2.03576,-6.42694 3.67357,-37.07886 5.73072,-30.766705 6.8208,-33.321146 14.21949,-33.321146 7.60025,0 7.66507,1.746173 1.33732,36.029818 -4.95263,26.833268 -6.14607,31.397998 -8.76297,33.517038 -3.46975,2.80964 -8.13101,3.18955 -10.46741,0.85315 z m 47.35678,-0.31626 c -6.69891,-2.3899 -14.1124,-7.52172 -15.04864,-10.41708 -1.23012,-3.80415 0.67903,-7.557073 4.97427,-9.778233 3.85349,-1.99272 4.26536,-1.923584 9.57217,1.6068 3.90863,2.60025 7.73733,3.85166 12.97164,4.23981 6.43896,0.477473 7.93989,0.108843 11.29,-2.7728 3.32696,-2.86172 3.61627,-3.62172 2.08228,-5.470061 -0.97984,-1.18062 -4.26033,-2.820746 -7.29001,-3.644725 -13.85442,-3.767975 -17.9764,-5.499773 -21.14339,-8.883099 -6.61593,-7.067856 -6.40489,-15.789096 0.57441,-23.738085 11.3603,-12.938657 32.29759,-14.770215 44.06048,-3.854332 3.954,3.66928 4.46729,5.974048 2.25227,10.112871 -2.6901,5.026485 -7.59008,5.627969 -14.21581,1.745025 -6.81047,-3.991193 -13.59298,-4.482339 -18.40034,-1.332433 -5.95312,3.900638 -3.85185,6.19315 8.6381,9.424286 10.73274,2.776548 15.0571,4.983839 18.60805,9.498148 3.32554,4.227747 3.73902,13.466535 0.85251,19.048448 -6.38163,12.34073 -25.69074,19.241222 -39.77799,14.21546 z m 63.30988,0.31626 c -2.24944,-2.24945 -1.99768,-8.16829 0.96073,-22.586568 1.4084,-6.864057 4.45075,-24.180105 6.76076,-38.480105 5.31961,-32.930583 5.90516,-35.1355025 9.89827,-37.2725525 4.1461,-2.21893 9.68368,-0.849058 10.80121,2.671978 0.74301,2.3410105 -0.40597,12.6531475 -2.83788,25.4700195 l -0.67096,3.536112 5.07727,-1.810921 c 14.48182,-5.165269 29.24631,0.453744 35.22387,13.405364 3.2526,7.047455 3.08422,11.211771 -1.3435,33.224295 -3.94904,19.632708 -6.01036,23.442378 -12.68415,23.442378 -7.0587,0 -7.40028,-3.2691 -2.82477,-27.035273 3.6102,-18.752132 3.3244,-21.374096 -2.86128,-26.249923 -6.21689,-4.900434 -17.33392,-2.0173 -22.47483,5.828715 -1.14349,1.745177 -3.79778,12.067517 -5.89842,22.938532 -3.08744,15.977689 -4.38174,20.220859 -6.7539,22.141719 -3.38501,2.74102 -8.05793,3.09072 -10.37242,0.77623 z m 90.73333,0.12038 c -0.91667,-0.94621 -1.67548,-2.95038 -1.68624,-4.45372 -0.0107,-1.50333 3.35633,-22.233333 7.48245,-46.066666 6.21448,-35.896234 7.99131,-43.8713 10.35291,-46.4678755 2.7619,-3.036718 3.37102,-3.116891 19.51754,-2.56891 13.78838,0.467951 17.74256,1.08381 22.89663,3.566119 36.36756,17.5154265 28.59741,71.9789875 -13.09369,91.7780025 -9.99736,4.74773 -11.08936,4.96687 -27.10995,5.44022 -12.41881,0.36693 -17.11973,0.0527 -18.35965,-1.22717 z m 37.55216,-17.258723 c 15.78445,-5.905721 27.65667,-21.77431 27.80159,-37.160033 0.15983,-16.968213 -10.77128,-28.215008 -28.39067,-29.210593 -9.00928,-0.509071 -9.02292,-0.504475 -9.78946,3.299591 -0.42218,2.095154 -2.90032,16.109372 -5.50696,31.142705 -2.60664,15.033333 -5.07066,28.98333 -5.47561,31 -0.73241,3.647493 -0.69761,3.666673 6.65299,3.666673 4.18906,0 10.55896,-1.185943 14.70812,-2.738343 z m 53.04783,17.138343 c -0.88,-0.88 -1.6,-3.0375 -1.6,-4.79444 0,-3.37391 45.16745,-86.804969 49.77337,-91.9388995 3.10591,-3.46196 9.09971,-3.964429 11.58395,-0.971102 1.58215,1.906372 18.58961,84.7606715 18.62588,90.7386815 0.0208,3.41706 -5.25004,8.57292 -8.7358,8.54534 -4.77467,-0.0378 -6.3026,-2.33572 -8.54288,-12.84814 l -2.23013,-10.46478 H 537.83465 520.0299 l -5.04501,9.33334 c -2.77475,5.13333 -6.33581,10.38333 -7.91348,11.66666 -3.32248,2.70264 -8.00399,3.03574 -10.30639,0.73334 z m 55.39705,-40.066673 c -0.34186,-0.916667 -1.71609,-7.516667 -3.05384,-14.666667 -1.33774,-7.15 -2.77222,-12.996809 -3.18773,-12.992909 -0.58904,0.0055 -13.81642,23.603799 -15.86658,28.30672 -0.24446,0.560737 4.76974,1.019523 11.14265,1.019523 8.71229,0 11.43288,-0.413506 10.9655,-1.666667 z M 72.621792,22.425954 c -2.84124,-3.423485 -1.25757,-9.26952 2.90536,-10.72502 3.06522,-1.071702 4.19095,-0.796558 6.60085,1.613342 2.40968,2.409678 2.68502,3.535906 1.61381,6.600845 -0.97651,2.79396 -2.2892,3.793376 -5.38108,4.096871 -2.42335,0.237874 -4.76151,-0.40831 -5.73894,-1.586038 z M 219.4317,9.343905 c -2.78872,-2.78872 -1.93205,-10.956545 1.48593,-14.1675805 3.38587,-3.180862 8.80955,-3.80361 11.31407,-1.299086 2.49847,2.498472 1.88183,9.6820915 -1.16344,13.5535215 -2.97315,3.779741 -8.81029,4.739414 -11.63656,1.913145 z"
       style="fill:#0c1523;fill-opacity:1;stroke-width:1.33333325" />
  </g>
  <circle
     style="fill:#0c1523;fill-opacity:1;fill-rule:nonzero;stroke:none;stroke-width:13.22834682;stroke-linecap:round;stroke-linejoin:round;stroke-miterlimit:4;stroke-dasharray:none;stroke-opacity:1"
     id="path815"
     cx="74.338982"
     cy="32.760838"
     r="6.9642181" />
</svg>
